<svg height="512" width="512" xmlns="http://www.w3.org/2000/svg"><linearGradient id="a" gradientUnits="userSpaceOnUse" x1="256" x2="256" y1="512" y2="0"><stop offset="0" stop-color="#a93aff"/><stop offset="1" stop-color="#ff81ff"/></linearGradient><path d="M301 120h-90c-8.284 0-15 6.716-15 15 0 8.271-6.729 15-15 15-8.284 0-15 6.716-15 15v182c0 8.284 6.716 15 15 15 8.271 0 15 6.729 15 15 0 8.284 6.716 15 15 15h90c8.284 0 15-6.716 15-15 0-8.271 6.729-15 15-15 8.284 0 15-6.716 15-15V165c0-8.284-6.716-15-15-15-8.271 0-15-6.729-15-15 0-8.284-6.716-15-15-15zm15 214.57c-12.768 4.527-22.903 14.662-27.43 27.43h-65.14c-4.526-12.768-14.662-22.903-27.43-27.43V177.43c12.768-4.527 22.903-14.662 27.43-27.43h65.141c4.526 12.768 14.662 22.903 27.43 27.43v157.14zM391 0h-90c-8.284 0-15 6.716-15 15v15c0 16.542-13.458 30-30 30s-30-13.458-30-30V15c0-8.284-6.716-15-15-15h-90c-8.284 0-15 6.716-15 15v482c0 8.284 6.716 15 15 15h90c8.284 0 15-6.716 15-15v-15c0-16.542 13.458-30 30-30s30 13.458 30 30v15c0 8.284 6.716 15 15 15h90c8.284 0 15-6.716 15-15V15c0-8.284-6.716-15-15-15zm-15 482h-60c0-33.084-26.916-60-60-60s-60 26.916-60 60h-60V30h60c0 33.084 26.916 60 60 60s60-26.916 60-60h60z" fill="url(#a)"/></svg>